PathFileType	4	(x/y/z)	A01_FAST_T0021.trc
DataRate	CameraRate	NumFrames	NumMarkers	Units	OrigDataRate	OrigDataStartFrame	OrigNumFrames
240	240	9	48	mm	240	72	287
Frame#	Time	TOP_HEAD			R_AC			L_AC			R_ASIS			L_ASIS			R_PSIS			L_PSIS			SACRAL			L_IC			R_IC			L_GT			R_GT			R_LAT_KNEE			R_MED_KNEE			L_MED_KNEE			L_LAT_KNEE			R_TOE			L_TOE			R_1ST_MET			L_1ST_MET			L_5TH_MET			R_5TH_MET			R_LAT_ANK			R_MED_ANK			L_MED_ANK			L_LAT_ANK			L_HEEL_SUP			R_HEEL_SUP			L_HEEL_LAT			R_HEEL_LAT			L_HEEL_MED			R_HEEL_MED			R_LL_PROX_POST			R_LL_PROX_ANT			R_LL_DIST_ANT			R_LL_DIST_POST			R_THIGH_PROX_POST			R_THIGH_PROX_ANT			R_THIGH_DIST_ANT			R_THIGH_DIST_POST			L_PROS_PROX_ANT			L_PROS_PROX_POST			L_PROS_DIST_POST			L_PROS_DIST_ANT			L_THIGH_PROX_ANT			L_THIGH_PROX_POST			L_THIGH_DIST_POST			L_THIGH_DIST_ANT			
		X1	Y1	Z1	X2	Y2	Z2	X3	Y3	Z3	X4	Y4	Z4	X5	Y5	Z5	X6	Y6	Z6	X7	Y7	Z7	X8	Y8	Z8	X9	Y9	Z9	X10	Y10	Z10	X11	Y11	Z11	X12	Y12	Z12	X13	Y13	Z13	X14	Y14	Z14	X15	Y15	Z15	X16	Y16	Z16	X17	Y17	Z17	X18	Y18	Z18	X19	Y19	Z19	X20	Y20	Z20	X21	Y21	Z21	X22	Y22	Z22	X23	Y23	Z23	X24	Y24	Z24	X25	Y25	Z25	X26	Y26	Z26	X27	Y27	Z27	X28	Y28	Z28	X29	Y29	Z29	X30	Y30	Z30	X31	Y31	Z31	X32	Y32	Z32	X33	Y33	Z33	X34	Y34	Z34	X35	Y35	Z35	X36	Y36	Z36	X37	Y37	Z37	X38	Y38	Z38	X39	Y39	Z39	X40	Y40	Z40	X41	Y41	Z41	X42	Y42	Z42	X43	Y43	Z43	X44	Y44	Z44	X45	Y45	Z45	X46	Y46	Z46	X47	Y47	Z47	X48	Y48	Z48	

72	0.29687	-296.62	1819.2	284.45	-445.24	1578.6	507.23	-460.62	1529.4	50.493	-467.12	1087.7	521.75	-441.99	1032.5	170.41	-672.42	1085.7	383.81	-658.44	1091.8	252.02	-681.49	1058.7	316.11	-466.93	1141.8	125.62	-496.29	1209.2	514.89	-502.15	952.55	128.62	-528.84	977.13	560.02	-497.96	571.99	537.27	-446.1	549.36	410.56	-417.56	563.87	350.22	-437.19	567.7	193.19	-745.75	68.106	439.42	-270.47	83.999	262.61	-803.57	125.1	384.92	-350.05	57.389	318.89	-378.6	46.773	189.29	-837.08	146.4	512.51	-844.99	282.79	484.83	-822.61	278.62	384.43	-476.75	127.27	298.86	-508.52	117.82	231.74	-594.79	72.92	272.61	-919.67	339.37	415.06	-581.84	44.868	241.05	-939.15	322.09	449.37	-573.14	43.668	305.38	-934.77	316.8	389.36	-674.88	518.06	521.58	-637.08	461.16	548.27	-687.31	408.05	526.71	-721.2	449.9	509.65	-552.25	829.58	549.74	-486.14	857.54	555.49	-471.67	766.9	558.27	-534.81	741.41	548.55	-394.44	483.71	207.63	-449.57	485.31	196.87	-458.16	423.6	206.52	-404.86	428.82	215.64	-421.32	817.57	163.94	-491.94	814.31	149.29	-472.11	741.41	162.81	-407.82	745.55	175.73
73	0.30105	-289.92	1819.9	284.92	-439.5	1579.5	507.38	-453.94	1530.3	50.534	-460.42	1088.6	521.23	-435.73	1033.1	169.97	-665.91	1086.4	383.54	-651.97	1092.8	251.73	-675.05	1059.6	315.79	-460.62	1142.7	125.35	-489.87	1209.7	514.7	-496.14	953.32	128.24	-521.61	977.9	559.57	-485.85	573.09	536.94	-434.48	551.2	410.1	-415.31	563.8	350.29	-434.87	567.72	193.28	-724.79	69.154	439.74	-270.37	83.896	262.6	-784.53	124.08	385.25	-349.97	57.376	318.89	-378.58	46.789	189.32	-818.13	144.76	512.99	-830.05	280.53	484.85	-807.97	276.77	384.35	-476.42	127.47	298.89	-508.07	118.17	231.78	-594.63	73.271	272.66	-906.79	334.92	415.29	-581.78	45.164	241.11	-925.61	317.18	449.67	-573.08	43.981	305.4	-921.27	311.81	389.68	-662.33	517.27	522.25	-623.78	460.64	548.41	-673.56	407.11	526.85	-707.98	448.67	510.18	-543.1	830.14	549.48	-477.22	858.81	555.07	-461.83	768.34	557.93	-524.7	742.17	548.34	-392.5	483.53	207.7	-447.63	485.39	196.94	-456.51	423.73	206.6	-403.17	428.7	215.71	-416.35	817.68	163.87	-487.02	814.97	149.14	-467.79	741.93	162.71	-403.48	745.55	175.75
74	0.30523	-283.22	1820.6	285.42	-433.74	1580.4	507.52	-447.29	1531.2	50.596	-453.74	1089.5	520.7	-429.48	1033.7	169.53	-659.41	1087.2	383.28	-645.52	1093.8	251.45	-668.62	1060.5	315.48	-454.34	1143.7	125.08	-483.46	1210.2	514.52	-490.16	954.07	127.87	-514.43	978.68	559.13	-473.84	574.22	536.55	-422.86	553.05	409.6	-413.08	563.73	350.38	-432.57	567.75	193.38	-703.69	70.066	440.05	-270.27	83.787	262.58	-765.3	122.88	385.57	-349.9	57.364	318.89	-378.55	46.804	189.35	-799.01	142.92	513.44	-814.93	278	484.9	-793.15	274.65	384.3	-476.08	127.68	298.92	-507.62	118.54	231.82	-594.47	73.643	272.72	-893.68	330.12	415.54	-581.72	45.479	241.17	-911.81	311.94	449.98	-573.03	44.314	305.42	-907.5	306.48	390.02	-649.79	516.33	522.89	-610.45	460.04	548.52	-659.73	406.04	526.99	-694.72	447.27	510.69	-534.02	830.72	549.19	-468.38	860.09	554.65	-452.09	769.79	557.55	-514.69	742.94	548.11	-390.6	483.36	207.79	-445.71	485.48	197.03	-454.89	423.87	206.68	-401.51	428.59	215.8	-411.42	817.78	163.82	-482.13	815.63	149.01	-463.49	742.44	162.64	-399.17	745.54	175.78
75	0.30941	-276.52	1821.3	285.94	-427.95	1581.3	507.65	-440.66	1532.1	50.675	-447.07	1090.4	520.16	-423.24	1034.3	169.1	-652.92	1088	383.03	-639.09	1094.8	251.18	-662.21	1061.4	315.19	-448.07	1144.6	124.81	-477.05	1210.8	514.35	-484.2	954.79	127.51	-507.3	979.45	558.69	-461.91	575.36	536.12	-411.27	554.91	409.07	-410.86	563.65	350.49	-430.31	567.78	193.5	-682.49	70.845	440.34	-270.16	83.672	262.56	-745.89	121.51	385.87	-349.82	57.352	318.89	-378.52	46.818	189.39	-779.72	140.89	513.89	-799.62	275.19	484.96	-778.15	272.25	384.25	-475.74	127.89	298.95	-507.18	118.92	231.86	-594.3	74.038	272.78	-880.31	325	415.82	-581.65	45.814	241.23	-897.75	306.38	450.31	-572.97	44.668	305.45	-893.45	300.85	390.36	-637.28	515.26	523.49	-597.1	459.34	548.61	-645.84	404.85	527.1	-681.42	445.7	511.17	-525.03	831.31	548.88	-459.61	861.36	554.22	-442.44	771.25	557.15	-504.76	743.74	547.83	-388.71	483.19	207.89	-443.82	485.57	197.13	-453.29	424.01	206.78	-399.86	428.5	215.9	-406.53	817.86	163.78	-477.25	816.27	148.88	-459.23	742.94	162.58	-394.89	745.53	175.84
76	0.31359	-269.82	1821.9	286.49	-422.15	1582.2	507.77	-434.06	1533	50.772	-440.42	1091.3	519.63	-417.02	1034.9	168.67	-646.44	1088.8	382.78	-632.66	1095.8	250.92	-655.8	1062.3	314.91	-441.82	1145.5	124.54	-470.63	1211.3	514.2	-478.26	955.49	127.16	-500.23	980.23	558.26	-450.09	576.53	535.64	-399.73	556.79	408.49	-408.64	563.58	350.6	-428.07	567.82	193.63	-661.21	71.493	440.61	-270.05	83.55	262.54	-726.32	119.98	386.17	-349.73	57.34	318.88	-378.5	46.831	189.43	-760.28	138.7	514.32	-784.13	272.13	485.04	-762.97	269.6	384.23	-475.39	128.12	298.98	-506.74	119.31	231.9	-594.12	74.454	272.84	-866.69	319.58	416.12	-581.58	46.17	241.3	-883.42	300.54	450.66	-572.91	45.042	305.48	-879.13	294.93	390.71	-624.78	514.07	524.04	-583.75	458.57	548.67	-631.9	403.54	527.21	-668.08	443.98	511.63	-516.12	831.9	548.56	-450.94	862.63	553.79	-432.89	772.71	556.73	-494.93	744.54	547.53	-386.85	483.04	208	-441.94	485.67	197.24	-451.7	424.17	206.88	-398.23	428.41	216.01	-401.67	817.93	163.77	-472.4	816.9	148.77	-454.99	743.43	162.53	-390.65	745.5	175.91
77	0.31777	-263.11	1822.5	287.05	-416.31	1583.1	507.89	-427.48	1533.9	50.884	-433.8	1092.1	519.08	-410.82	1035.5	168.24	-639.97	1089.5	382.55	-626.25	1096.7	250.67	-649.41	1063.2	314.65	-435.59	1146.4	124.27	-464.22	1211.8	514.06	-472.33	956.15	126.81	-493.2	981	557.84	-438.36	577.7	535.11	-388.24	558.68	407.88	-406.41	563.51	350.73	-425.85	567.87	193.77	-639.87	72.017	440.85	-269.93	83.423	262.51	-706.62	118.31	386.45	-349.65	57.327	318.87	-378.47	46.843	189.47	-740.7	136.35	514.73	-768.47	268.83	485.13	-747.61	266.71	384.23	-475.04	128.35	299.02	-506.3	119.72	231.95	-593.94	74.892	272.9	-852.81	313.88	416.46	-581.51	46.547	241.36	-868.83	294.44	451.03	-572.85	45.437	305.51	-864.53	288.75	391.07	-612.31	512.75	524.53	-570.39	457.74	548.7	-617.9	402.13	527.3	-654.72	442.12	512.06	-507.3	832.5	548.22	-442.34	863.9	553.35	-423.43	774.18	556.28	-485.18	745.36	547.21	-385	482.89	208.13	-440.07	485.78	197.37	-450.12	424.32	206.99	-396.61	428.32	216.13	-396.85	817.97	163.77	-467.56	817.52	148.67	-450.78	743.92	162.5	-386.43	745.46	175.99
78	0.32196	-256.39	1823.1	287.64	-410.46	1584	508.01	-420.91	1534.8	51.009	-427.19	1093	518.53	-404.62	1036	167.82	-633.52	1090.3	382.33	-619.86	1097.6	250.43	-643.03	1064.1	314.4	-429.37	1147.3	124	-457.81	1212.3	513.93	-466.43	956.78	126.48	-486.2	981.78	557.44	-426.75	578.89	534.55	-376.83	560.57	407.23	-404.17	563.45	350.87	-423.64	567.92	193.92	-618.49	72.421	441.05	-269.81	83.29	262.48	-686.79	116.5	386.71	-349.56	57.313	318.85	-378.44	46.855	189.5	-720.99	133.86	515.12	-752.63	265.3	485.24	-732.09	263.58	384.24	-474.68	128.59	299.06	-505.87	120.13	231.99	-593.75	75.349	272.96	-838.67	307.92	416.81	-581.43	46.942	241.42	-853.96	288.09	451.42	-572.79	45.851	305.55	-849.66	282.32	391.44	-599.87	511.33	524.97	-557.04	456.85	548.7	-603.87	400.63	527.37	-641.34	440.12	512.45	-498.55	833.1	547.87	-433.83	865.15	552.91	-414.07	775.65	555.82	-475.53	746.19	546.86	-383.15	482.75	208.26	-438.21	485.88	197.5	-448.54	424.49	207.11	-394.99	428.25	216.25	-392.07	817.98	163.78	-462.73	818.12	148.57	-446.59	744.39	162.48	-382.24	745.39	176.08
79	0.32614	-249.66	1823.6	288.25	-404.57	1584.8	508.11	-414.35	1535.7	51.146	-420.6	1093.8	517.99	-398.44	1036.4	167.4	-627.07	1091	382.12	-613.48	1098.5	250.2	-636.66	1064.9	314.17	-423.15	1148.1	123.73	-451.4	1212.9	513.82	-460.54	957.38	126.16	-479.24	982.55	557.05	-415.24	580.08	533.95	-365.5	562.47	406.55	-401.92	563.38	351.01	-421.43	567.97	194.08	-597.08	72.713	441.23	-269.68	83.153	262.44	-666.84	114.58	386.96	-349.48	57.298	318.83	-378.41	46.866	189.54	-701.15	131.24	515.49	-736.61	261.58	485.37	-716.4	260.24	384.28	-474.31	128.84	299.1	-505.45	120.55	232.04	-593.55	75.826	273.02	-824.28	301.73	417.2	-581.35	47.356	241.48	-838.82	281.51	451.83	-572.72	46.284	305.58	-834.51	275.68	391.83	-587.46	509.82	525.33	-543.7	455.92	548.66	-589.8	399.06	527.42	-627.93	438.02	512.81	-489.89	833.7	547.51	-425.41	866.4	552.47	-404.8	777.11	555.33	-465.97	747.02	546.49	-381.31	482.62	208.4	-436.36	486	197.64	-446.96	424.65	207.23	-393.38	428.18	216.38	-387.32	817.97	163.81	-457.92	818.7	148.48	-442.41	744.85	162.47	-378.08	745.32	176.18
80	0.33032	-242.93	1824.1	288.88	-398.66	1585.6	508.21	-407.8	1536.6	51.294	-414.04	1094.5	517.44	-392.26	1036.9	166.98	-620.63	1091.8	381.93	-607.12	1099.4	249.98	-630.29	1065.7	313.96	-416.94	1149	123.47	-444.99	1213.4	513.73	-454.68	957.93	125.86	-472.31	983.31	556.68	-403.86	581.28	533.31	-354.27	564.37	405.84	-399.64	563.31	351.16	-419.23	568.03	194.24	-575.66	72.902	441.36	-269.55	83.011	262.4	-646.78	112.55	387.19	-349.39	57.282	318.81	-378.38	46.877	189.58	-681.2	128.51	515.84	-720.43	257.66	485.51	-700.55	256.71	384.33	-473.93	129.1	299.14	-505.02	120.98	232.09	-593.35	76.32	273.07	-809.62	295.32	417.61	-581.26	47.785	241.54	-823.41	274.74	452.26	-572.66	46.734	305.6	-819.08	268.85	392.23	-575.08	508.21	525.61	-530.38	454.95	548.58	-575.71	397.42	527.45	-614.52	435.81	513.11	-481.31	834.3	547.15	-417.07	867.63	552.04	-395.62	778.57	554.84	-456.5	747.85	546.1	-379.47	482.49	208.55	-434.5	486.12	197.78	-445.37	424.82	207.35	-391.76	428.11	216.52	-382.6	817.94	163.85	-453.13	819.26	148.4	-438.26	745.28	162.47	-373.94	745.22	176.29
